<svg width="500" height="500" viewBox="0 0 500 500" fill="none" xmlns="http://www.w3.org/2000/svg">
<rect width="500" height="500" fill="#F5F5F5"/>
<g clip-path="url(#clip0_0_1)">
<rect width="500" height="500" fill="white"/>
<path d="M109.199 428.754C102.559 428.754 97.8711 427.191 95.1367 424.066C92.207 421.137 90.7422 416.059 90.7422 408.832C90.7422 401.605 92.207 396.43 95.1367 393.305C97.8711 390.375 102.559 388.91 109.199 388.91H127.363V196.137C127.363 155.316 138.105 124.848 159.59 104.73C180.879 84.6133 211.055 74.5547 250.117 74.5547C289.18 74.5547 319.453 84.6133 340.938 104.73C362.227 124.848 372.871 155.316 372.871 196.137V388.91H391.035C397.676 388.91 402.461 390.375 405.391 393.305C408.125 396.43 409.492 401.605 409.492 408.832C409.492 416.059 408.125 421.137 405.391 424.066C402.461 427.191 397.676 428.754 391.035 428.754H296.113C289.473 428.754 284.785 427.191 282.051 424.066C279.121 421.137 277.656 416.059 277.656 408.832C277.656 401.605 279.121 396.43 282.051 393.305C284.785 390.375 289.473 388.91 296.113 388.91H328.926V201.996C328.926 172.113 322.578 150.629 309.883 137.543C297.188 124.457 277.266 117.914 250.117 117.914C222.969 117.914 203.047 124.457 190.352 137.543C177.656 150.629 171.309 172.113 171.309 201.996V388.91H204.121C210.762 388.91 215.547 390.375 218.477 393.305C221.211 396.43 222.578 401.605 222.578 408.832C222.578 416.059 221.211 421.137 218.477 424.066C215.547 427.191 210.762 428.754 204.121 428.754H109.199Z" fill="black"/>
<path d="M364.836 402.57C364.836 406.997 363.794 410.122 361.711 411.945C359.758 413.898 356.372 414.875 351.555 414.875C346.737 414.875 343.286 413.898 341.203 411.945C339.25 410.122 338.273 406.997 338.273 402.57V352.57H159.562V406.477C159.562 410.904 158.521 414.029 156.438 415.852C154.484 417.805 151.099 418.781 146.281 418.781C141.464 418.781 138.013 417.805 135.93 415.852C133.977 414.029 133 410.904 133 406.477V269.367C133 264.94 133.977 261.75 135.93 259.797C138.013 257.974 141.464 257.062 146.281 257.062C151.099 257.062 154.484 257.974 156.438 259.797C158.521 261.75 159.562 264.94 159.562 269.367V323.273H338.273V273.273C338.273 268.846 339.25 265.656 341.203 263.703C343.286 261.88 346.737 260.969 351.555 260.969C356.372 260.969 359.758 261.88 361.711 263.703C363.794 265.656 364.836 268.846 364.836 273.273V402.57Z" fill="black"/>
<path d="M295.594 180.719C297.719 180.719 299.219 181.219 300.094 182.219C301.031 183.156 301.5 184.781 301.5 187.094C301.5 189.406 301.031 191.062 300.094 192.062C299.219 193 297.719 193.469 295.594 193.469H289.219L256.594 245.875V279.25H277.781C279.906 279.25 281.406 279.75 282.281 280.75C283.219 281.688 283.688 283.312 283.688 285.625C283.688 287.938 283.219 289.594 282.281 290.594C281.406 291.531 279.906 292 277.781 292H221.344C219.219 292 217.688 291.531 216.75 290.594C215.875 289.594 215.438 287.938 215.438 285.625C215.438 283.312 215.875 281.688 216.75 280.75C217.688 279.75 219.219 279.25 221.344 279.25H242.531V245.875L210.094 193.469H203.531C201.406 193.469 199.875 193 198.938 192.062C198.062 191.062 197.625 189.406 197.625 187.094C197.625 184.781 198.062 183.156 198.938 182.219C199.875 181.219 201.406 180.719 203.531 180.719H234.844C236.969 180.719 238.469 181.219 239.344 182.219C240.281 183.156 240.75 184.781 240.75 187.094C240.75 189.406 240.281 191.062 239.344 192.062C238.469 193 236.969 193.469 234.844 193.469H226.125L249.562 231.812L273.188 193.469H267.094C264.969 193.469 263.438 193 262.5 192.062C261.625 191.062 261.188 189.406 261.188 187.094C261.188 184.781 261.625 183.156 262.5 182.219C263.438 181.219 264.969 180.719 267.094 180.719H295.594Z" fill="black"/>
</g>
<defs>
<clipPath id="clip0_0_1">
<rect width="500" height="500" fill="white"/>
</clipPath>
</defs>
</svg>
