<svg width="500" height="500" viewBox="0 0 500 500" fill="none" xmlns="http://www.w3.org/2000/svg">
<g clip-path="url(#clip0_1_2)">
<path d="M51.4136 498.276C42.1278 498.276 35.5731 496.091 31.7495 491.721C27.6528 487.625 25.6045 480.524 25.6045 470.418C25.6045 460.313 27.6528 453.076 31.7495 448.706C35.5731 444.609 42.1278 442.561 51.4136 442.561H76.813V173C76.813 115.919 91.8341 73.3136 121.876 45.1831C151.646 17.0526 193.841 2.9873 248.464 2.9873C303.086 2.9873 345.419 17.0526 375.461 45.1831C405.23 73.3136 420.115 115.919 420.115 173V442.561H445.514C454.8 442.561 461.491 444.609 465.588 448.706C469.411 453.076 471.323 460.313 471.323 470.418C471.323 480.524 469.411 487.625 465.588 491.721C461.491 496.091 454.8 498.276 445.514 498.276H312.782C303.496 498.276 296.941 496.091 293.118 491.721C289.021 487.625 286.973 480.524 286.973 470.418C286.973 460.313 289.021 453.076 293.118 448.706C296.941 444.609 303.496 442.561 312.782 442.561H358.665V181.193C358.665 139.407 349.788 109.364 332.036 91.0659C314.284 72.7674 286.426 63.6182 248.464 63.6182C210.501 63.6182 182.644 72.7674 164.892 91.0659C147.139 109.364 138.263 139.407 138.263 181.193V442.561H184.146C193.432 442.561 200.123 444.609 204.22 448.706C208.043 453.076 209.955 460.313 209.955 470.418C209.955 480.524 208.043 487.625 204.22 491.721C200.123 496.091 193.432 498.276 184.146 498.276H51.4136Z" fill="black"/>
<path d="M413.57 422.398C413.57 428.596 412.112 432.971 409.195 435.523C406.461 438.258 401.721 439.625 394.977 439.625C388.232 439.625 383.401 438.258 380.484 435.523C377.75 432.971 376.383 428.596 376.383 422.398V352.398H126.188V427.867C126.188 434.065 124.729 438.44 121.812 440.992C119.078 443.727 114.339 445.094 107.594 445.094C100.849 445.094 96.0182 443.727 93.1016 440.992C90.3672 438.44 89 434.065 89 427.867V235.914C89 229.716 90.3672 225.25 93.1016 222.516C96.0182 219.964 100.849 218.688 107.594 218.688C114.339 218.688 119.078 219.964 121.812 222.516C124.729 225.25 126.188 229.716 126.188 235.914V311.383H376.383V241.383C376.383 235.185 377.75 230.719 380.484 227.984C383.401 225.432 388.232 224.156 394.977 224.156C401.721 224.156 406.461 225.432 409.195 227.984C412.112 230.719 413.57 235.185 413.57 241.383V422.398Z" fill="black"/>
<path d="M307.888 140.103C310.655 140.103 312.608 140.754 313.747 142.056C314.968 143.276 315.578 145.392 315.578 148.403C315.578 151.414 314.968 153.571 313.747 154.873C312.608 156.094 310.655 156.704 307.888 156.704H299.587L257.106 224.941V268.398H284.694C287.461 268.398 289.414 269.049 290.554 270.352C291.774 271.572 292.385 273.688 292.385 276.699C292.385 279.71 291.774 281.867 290.554 283.169C289.414 284.39 287.461 285 284.694 285H211.208C208.441 285 206.447 284.39 205.227 283.169C204.087 281.867 203.518 279.71 203.518 276.699C203.518 273.688 204.087 271.572 205.227 270.352C206.447 269.049 208.441 268.398 211.208 268.398H238.796V224.941L196.56 156.704H188.015C185.248 156.704 183.254 156.094 182.033 154.873C180.894 153.571 180.324 151.414 180.324 148.403C180.324 145.392 180.894 143.276 182.033 142.056C183.254 140.754 185.248 140.103 188.015 140.103H228.786C231.553 140.103 233.506 140.754 234.646 142.056C235.866 143.276 236.477 145.392 236.477 148.403C236.477 151.414 235.866 153.571 234.646 154.873C233.506 156.094 231.553 156.704 228.786 156.704H217.434L247.951 206.631L278.713 156.704H270.778C268.011 156.704 266.018 156.094 264.797 154.873C263.658 153.571 263.088 151.414 263.088 148.403C263.088 145.392 263.658 143.276 264.797 142.056C266.018 140.754 268.011 140.103 270.778 140.103H307.888Z" fill="black"/>
</g>
<defs>
<clipPath id="clip0_1_2">
<rect width="500" height="500" fill="white"/>
</clipPath>
</defs>
</svg>
